<mxfile host="app.diagrams.net" modified="2020-12-19T06:18:22.086Z" agent="5.0 (Windows NT 10.0; Win64; x64) AppleWebKit/537.36 (KHTML, like Gecko) Chrome/87.0.4280.88 Safari/537.36" etag="ML_kpBYYeuqoC0fnIwEc" version="14.1.1" type="github">
  <diagram id="mDZLRjDJ_hvgON_GbtkW" name="Page-1">
    <mxGraphModel dx="3197" dy="1270" grid="1" gridSize="10" guides="1" tooltips="1" connect="1" arrows="1" fold="1" page="1" pageScale="1" pageWidth="827" pageHeight="1169" math="0" shadow="0">
      <root>
        <mxCell id="0" />
        <mxCell id="1" parent="0" />
        <mxCell id="J_rocCRcKPg6Xyfqivn3-7" value="" style="group" parent="1" vertex="1" connectable="0">
          <mxGeometry x="-770" y="310" width="260" height="410" as="geometry" />
        </mxCell>
        <mxCell id="J_rocCRcKPg6Xyfqivn3-1" value="" style="verticalLabelPosition=bottom;verticalAlign=top;html=1;shadow=0;dashed=0;strokeWidth=1;shape=mxgraph.android.tab2;strokeColor=#c0c0c0;" parent="J_rocCRcKPg6Xyfqivn3-7" vertex="1">
          <mxGeometry width="260" height="410" as="geometry" />
        </mxCell>
        <mxCell id="J_rocCRcKPg6Xyfqivn3-3" value="&lt;font style=&quot;vertical-align: inherit; font-size: 20px;&quot;&gt;&lt;font style=&quot;vertical-align: inherit; font-size: 20px;&quot;&gt;&lt;font style=&quot;vertical-align: inherit; font-size: 20px;&quot;&gt;&lt;font style=&quot;vertical-align: inherit; font-size: 20px;&quot;&gt;MainActivity&lt;/font&gt;&lt;/font&gt;&lt;/font&gt;&lt;/font&gt;" style="text;html=1;resizable=0;autosize=1;align=center;verticalAlign=middle;points=[];fillColor=none;strokeColor=none;rounded=0;fontStyle=1;fontSize=20;" parent="J_rocCRcKPg6Xyfqivn3-7" vertex="1">
          <mxGeometry x="65" y="180" width="130" height="30" as="geometry" />
        </mxCell>
        <mxCell id="J_rocCRcKPg6Xyfqivn3-4" value="" style="ellipse;whiteSpace=wrap;html=1;aspect=fixed;fontSize=20;" parent="J_rocCRcKPg6Xyfqivn3-7" vertex="1">
          <mxGeometry x="30" y="30" width="50" height="50" as="geometry" />
        </mxCell>
        <mxCell id="J_rocCRcKPg6Xyfqivn3-5" value="&lt;font style=&quot;vertical-align: inherit; font-size: 30px;&quot;&gt;&lt;font style=&quot;vertical-align: inherit; font-size: 30px;&quot;&gt;&lt;font style=&quot;vertical-align: inherit; font-size: 30px;&quot;&gt;&lt;font style=&quot;vertical-align: inherit; font-size: 30px;&quot;&gt;&lt;font style=&quot;vertical-align: inherit; font-size: 30px;&quot;&gt;&lt;font style=&quot;vertical-align: inherit; font-size: 30px;&quot;&gt;&lt;font style=&quot;vertical-align: inherit; font-size: 30px;&quot;&gt;&lt;font style=&quot;vertical-align: inherit; font-size: 30px;&quot;&gt;R&lt;/font&gt;&lt;/font&gt;&lt;/font&gt;&lt;/font&gt;&lt;/font&gt;&lt;/font&gt;&lt;/font&gt;&lt;/font&gt;" style="text;html=1;resizable=0;autosize=1;align=center;verticalAlign=middle;points=[];fillColor=none;strokeColor=none;rounded=0;fontSize=30;fontStyle=1" parent="J_rocCRcKPg6Xyfqivn3-7" vertex="1">
          <mxGeometry x="35" y="35" width="40" height="40" as="geometry" />
        </mxCell>
        <mxCell id="JdTl2YU2nar3yQbTGPbS-1" value="" style="group" vertex="1" connectable="0" parent="1">
          <mxGeometry x="-440" y="310" width="260" height="410" as="geometry" />
        </mxCell>
        <mxCell id="JdTl2YU2nar3yQbTGPbS-2" value="" style="verticalLabelPosition=bottom;verticalAlign=top;html=1;shadow=0;dashed=0;strokeWidth=1;shape=mxgraph.android.tab2;strokeColor=#c0c0c0;" vertex="1" parent="JdTl2YU2nar3yQbTGPbS-1">
          <mxGeometry width="260" height="410" as="geometry" />
        </mxCell>
        <mxCell id="JdTl2YU2nar3yQbTGPbS-3" value="&lt;font style=&quot;vertical-align: inherit ; font-size: 20px&quot;&gt;&lt;font style=&quot;vertical-align: inherit ; font-size: 20px&quot;&gt;&lt;font style=&quot;vertical-align: inherit ; font-size: 20px&quot;&gt;&lt;font style=&quot;vertical-align: inherit ; font-size: 20px&quot;&gt;UserPageActivity&lt;/font&gt;&lt;/font&gt;&lt;/font&gt;&lt;/font&gt;" style="text;html=1;resizable=0;autosize=1;align=center;verticalAlign=middle;points=[];fillColor=none;strokeColor=none;rounded=0;fontStyle=1;fontSize=20;" vertex="1" parent="JdTl2YU2nar3yQbTGPbS-1">
          <mxGeometry x="40" y="180" width="180" height="30" as="geometry" />
        </mxCell>
        <mxCell id="JdTl2YU2nar3yQbTGPbS-8" value="" style="group" vertex="1" connectable="0" parent="JdTl2YU2nar3yQbTGPbS-1">
          <mxGeometry x="70" y="230" width="120" height="30" as="geometry" />
        </mxCell>
        <mxCell id="JdTl2YU2nar3yQbTGPbS-6" value="" style="rounded=1;whiteSpace=wrap;html=1;" vertex="1" parent="JdTl2YU2nar3yQbTGPbS-8">
          <mxGeometry width="120" height="30" as="geometry" />
        </mxCell>
        <mxCell id="JdTl2YU2nar3yQbTGPbS-7" value="&lt;b&gt;&lt;font style=&quot;font-size: 15px&quot;&gt;登录&lt;/font&gt;&lt;/b&gt;" style="text;html=1;resizable=0;autosize=1;align=center;verticalAlign=middle;points=[];fillColor=none;strokeColor=none;rounded=0;" vertex="1" parent="JdTl2YU2nar3yQbTGPbS-8">
          <mxGeometry x="35" y="5" width="50" height="20" as="geometry" />
        </mxCell>
        <mxCell id="JdTl2YU2nar3yQbTGPbS-9" value="" style="group" vertex="1" connectable="0" parent="JdTl2YU2nar3yQbTGPbS-1">
          <mxGeometry x="70" y="275" width="120" height="30" as="geometry" />
        </mxCell>
        <mxCell id="JdTl2YU2nar3yQbTGPbS-10" value="" style="rounded=1;whiteSpace=wrap;html=1;" vertex="1" parent="JdTl2YU2nar3yQbTGPbS-9">
          <mxGeometry width="120" height="30" as="geometry" />
        </mxCell>
        <mxCell id="JdTl2YU2nar3yQbTGPbS-11" value="&lt;b&gt;&lt;font style=&quot;font-size: 15px&quot;&gt;注册&lt;/font&gt;&lt;/b&gt;" style="text;html=1;resizable=0;autosize=1;align=center;verticalAlign=middle;points=[];fillColor=none;strokeColor=none;rounded=0;" vertex="1" parent="JdTl2YU2nar3yQbTGPbS-9">
          <mxGeometry x="35" y="5" width="50" height="20" as="geometry" />
        </mxCell>
        <mxCell id="JdTl2YU2nar3yQbTGPbS-13" style="edgeStyle=orthogonalEdgeStyle;rounded=0;orthogonalLoop=1;jettySize=auto;html=1;entryX=0.523;entryY=0;entryDx=0;entryDy=0;entryPerimeter=0;strokeWidth=3;" edge="1" parent="1" source="J_rocCRcKPg6Xyfqivn3-5" target="JdTl2YU2nar3yQbTGPbS-2">
          <mxGeometry relative="1" as="geometry">
            <Array as="points">
              <mxPoint x="-715" y="220" />
              <mxPoint x="-304" y="220" />
            </Array>
          </mxGeometry>
        </mxCell>
        <mxCell id="JdTl2YU2nar3yQbTGPbS-14" value="" style="group" vertex="1" connectable="0" parent="1">
          <mxGeometry x="-100" y="310" width="260" height="410" as="geometry" />
        </mxCell>
        <mxCell id="JdTl2YU2nar3yQbTGPbS-15" value="" style="verticalLabelPosition=bottom;verticalAlign=top;html=1;shadow=0;dashed=0;strokeWidth=1;shape=mxgraph.android.tab2;strokeColor=#c0c0c0;" vertex="1" parent="JdTl2YU2nar3yQbTGPbS-14">
          <mxGeometry width="260" height="410" as="geometry" />
        </mxCell>
        <mxCell id="JdTl2YU2nar3yQbTGPbS-16" value="&lt;font style=&quot;vertical-align: inherit ; font-size: 20px&quot;&gt;&lt;font style=&quot;vertical-align: inherit ; font-size: 20px&quot;&gt;&lt;font style=&quot;vertical-align: inherit ; font-size: 20px&quot;&gt;&lt;font style=&quot;vertical-align: inherit ; font-size: 20px&quot;&gt;UserRegisterActivity&lt;/font&gt;&lt;/font&gt;&lt;/font&gt;&lt;/font&gt;" style="text;html=1;resizable=0;autosize=1;align=center;verticalAlign=middle;points=[];fillColor=none;strokeColor=none;rounded=0;fontStyle=1;fontSize=20;" vertex="1" parent="JdTl2YU2nar3yQbTGPbS-14">
          <mxGeometry x="25" y="180" width="210" height="30" as="geometry" />
        </mxCell>
        <mxCell id="JdTl2YU2nar3yQbTGPbS-19" value="" style="group" vertex="1" connectable="0" parent="JdTl2YU2nar3yQbTGPbS-14">
          <mxGeometry x="70" y="230" width="120" height="30" as="geometry" />
        </mxCell>
        <mxCell id="JdTl2YU2nar3yQbTGPbS-20" value="" style="rounded=1;whiteSpace=wrap;html=1;" vertex="1" parent="JdTl2YU2nar3yQbTGPbS-19">
          <mxGeometry width="120" height="30" as="geometry" />
        </mxCell>
        <mxCell id="JdTl2YU2nar3yQbTGPbS-21" value="&lt;b&gt;&lt;font style=&quot;font-size: 15px&quot;&gt;注册&lt;/font&gt;&lt;/b&gt;" style="text;html=1;resizable=0;autosize=1;align=center;verticalAlign=middle;points=[];fillColor=none;strokeColor=none;rounded=0;" vertex="1" parent="JdTl2YU2nar3yQbTGPbS-19">
          <mxGeometry x="35" y="5" width="50" height="20" as="geometry" />
        </mxCell>
        <mxCell id="JdTl2YU2nar3yQbTGPbS-22" value="" style="group" vertex="1" connectable="0" parent="JdTl2YU2nar3yQbTGPbS-14">
          <mxGeometry x="70" y="280" width="120" height="30" as="geometry" />
        </mxCell>
        <mxCell id="JdTl2YU2nar3yQbTGPbS-23" value="" style="rounded=1;whiteSpace=wrap;html=1;" vertex="1" parent="JdTl2YU2nar3yQbTGPbS-22">
          <mxGeometry width="120" height="30" as="geometry" />
        </mxCell>
        <mxCell id="JdTl2YU2nar3yQbTGPbS-24" value="&lt;b&gt;&lt;font style=&quot;font-size: 15px&quot;&gt;发送验证码&lt;/font&gt;&lt;/b&gt;" style="text;html=1;resizable=0;autosize=1;align=center;verticalAlign=middle;points=[];fillColor=none;strokeColor=none;rounded=0;" vertex="1" parent="JdTl2YU2nar3yQbTGPbS-22">
          <mxGeometry x="15" y="5" width="90" height="20" as="geometry" />
        </mxCell>
        <mxCell id="JdTl2YU2nar3yQbTGPbS-25" style="edgeStyle=orthogonalEdgeStyle;rounded=0;orthogonalLoop=1;jettySize=auto;html=1;strokeWidth=3;" edge="1" parent="1" source="JdTl2YU2nar3yQbTGPbS-11">
          <mxGeometry relative="1" as="geometry">
            <mxPoint x="40" y="730" as="targetPoint" />
            <Array as="points">
              <mxPoint x="-310" y="790" />
              <mxPoint x="40" y="790" />
            </Array>
          </mxGeometry>
        </mxCell>
        <mxCell id="JdTl2YU2nar3yQbTGPbS-56" style="edgeStyle=orthogonalEdgeStyle;rounded=0;orthogonalLoop=1;jettySize=auto;html=1;strokeWidth=3;" edge="1" parent="1" source="JdTl2YU2nar3yQbTGPbS-26" target="JdTl2YU2nar3yQbTGPbS-36">
          <mxGeometry relative="1" as="geometry">
            <Array as="points">
              <mxPoint x="45" y="1220" />
              <mxPoint x="470" y="1220" />
            </Array>
          </mxGeometry>
        </mxCell>
        <mxCell id="JdTl2YU2nar3yQbTGPbS-58" style="edgeStyle=orthogonalEdgeStyle;rounded=0;orthogonalLoop=1;jettySize=auto;html=1;strokeWidth=3;" edge="1" parent="1" source="JdTl2YU2nar3yQbTGPbS-26" target="JdTl2YU2nar3yQbTGPbS-47">
          <mxGeometry relative="1" as="geometry" />
        </mxCell>
        <mxCell id="JdTl2YU2nar3yQbTGPbS-64" style="edgeStyle=orthogonalEdgeStyle;rounded=0;orthogonalLoop=1;jettySize=auto;html=1;entryX=0.864;entryY=1.004;entryDx=0;entryDy=0;entryPerimeter=0;strokeWidth=3;" edge="1" parent="1" source="JdTl2YU2nar3yQbTGPbS-26" target="JdTl2YU2nar3yQbTGPbS-2">
          <mxGeometry relative="1" as="geometry">
            <Array as="points">
              <mxPoint x="45" y="890" />
              <mxPoint x="-215" y="890" />
            </Array>
          </mxGeometry>
        </mxCell>
        <mxCell id="JdTl2YU2nar3yQbTGPbS-26" value="&lt;font size=&quot;1&quot;&gt;&lt;b style=&quot;font-size: 25px&quot;&gt;云服务器&lt;/b&gt;&lt;/font&gt;" style="ellipse;shape=cloud;whiteSpace=wrap;html=1;align=center;" vertex="1" parent="1">
          <mxGeometry x="-130" y="960" width="350" height="165" as="geometry" />
        </mxCell>
        <mxCell id="JdTl2YU2nar3yQbTGPbS-28" value="&lt;b&gt;&lt;font style=&quot;font-size: 15px&quot; color=&quot;#ff0000&quot;&gt;1.邮箱&lt;/font&gt;&lt;/b&gt;" style="text;html=1;resizable=0;autosize=1;align=center;verticalAlign=middle;points=[];fillColor=none;strokeColor=none;rounded=0;" vertex="1" parent="1">
          <mxGeometry x="180" y="585" width="60" height="20" as="geometry" />
        </mxCell>
        <mxCell id="JdTl2YU2nar3yQbTGPbS-35" value="&lt;b&gt;&lt;font style=&quot;font-size: 15px&quot; color=&quot;#ff0000&quot;&gt;3.用户名，邮箱，密码，验证码&lt;/font&gt;&lt;/b&gt;" style="text;html=1;resizable=0;autosize=1;align=center;verticalAlign=middle;points=[];fillColor=none;strokeColor=none;rounded=0;" vertex="1" parent="1">
          <mxGeometry x="50" y="835" width="220" height="20" as="geometry" />
        </mxCell>
        <mxCell id="JdTl2YU2nar3yQbTGPbS-36" value="&lt;font style=&quot;font-size: 25px&quot;&gt;&lt;span&gt;redis&lt;/span&gt;&lt;/font&gt;" style="outlineConnect=0;fontColor=#232F3E;gradientColor=none;strokeColor=#232F3E;fillColor=#ffffff;dashed=0;verticalLabelPosition=bottom;verticalAlign=top;align=center;html=1;fontSize=12;fontStyle=1;aspect=fixed;shape=mxgraph.aws4.resourceIcon;resIcon=mxgraph.aws4.generic_database;" vertex="1" parent="1">
          <mxGeometry x="400" y="972.5" width="140" height="140" as="geometry" />
        </mxCell>
        <mxCell id="JdTl2YU2nar3yQbTGPbS-38" value="&lt;b&gt;&lt;font style=&quot;font-size: 15px&quot; color=&quot;#ff0000&quot;&gt;2.{ 邮箱：验证码 }&lt;/font&gt;&lt;/b&gt;" style="text;html=1;resizable=0;autosize=1;align=center;verticalAlign=middle;points=[];fillColor=none;strokeColor=none;rounded=0;" vertex="1" parent="1">
          <mxGeometry x="160" y="1190" width="140" height="20" as="geometry" />
        </mxCell>
        <mxCell id="JdTl2YU2nar3yQbTGPbS-41" value="&lt;b&gt;&lt;font style=&quot;font-size: 15px&quot; color=&quot;#ff0000&quot;&gt;5.反馈注册结果&lt;/font&gt;&lt;/b&gt;" style="text;html=1;resizable=0;autosize=1;align=center;verticalAlign=middle;points=[];fillColor=none;strokeColor=none;rounded=0;" vertex="1" parent="1">
          <mxGeometry x="280" y="380" width="120" height="20" as="geometry" />
        </mxCell>
        <mxCell id="JdTl2YU2nar3yQbTGPbS-42" value="" style="group" vertex="1" connectable="0" parent="1">
          <mxGeometry x="680" y="640" width="260" height="410" as="geometry" />
        </mxCell>
        <mxCell id="JdTl2YU2nar3yQbTGPbS-43" value="" style="verticalLabelPosition=bottom;verticalAlign=top;html=1;shadow=0;dashed=0;strokeWidth=1;shape=mxgraph.android.tab2;strokeColor=#c0c0c0;" vertex="1" parent="JdTl2YU2nar3yQbTGPbS-42">
          <mxGeometry width="260" height="410" as="geometry" />
        </mxCell>
        <mxCell id="JdTl2YU2nar3yQbTGPbS-44" value="&lt;font style=&quot;vertical-align: inherit ; font-size: 20px&quot;&gt;&lt;font style=&quot;vertical-align: inherit ; font-size: 20px&quot;&gt;&lt;font style=&quot;vertical-align: inherit ; font-size: 20px&quot;&gt;&lt;font style=&quot;vertical-align: inherit ; font-size: 20px&quot;&gt;UserPageActivity&lt;/font&gt;&lt;/font&gt;&lt;/font&gt;&lt;/font&gt;" style="text;html=1;resizable=0;autosize=1;align=center;verticalAlign=middle;points=[];fillColor=none;strokeColor=none;rounded=0;fontStyle=1;fontSize=20;" vertex="1" parent="JdTl2YU2nar3yQbTGPbS-42">
          <mxGeometry x="40" y="180" width="180" height="30" as="geometry" />
        </mxCell>
        <mxCell id="JdTl2YU2nar3yQbTGPbS-52" value="" style="group" vertex="1" connectable="0" parent="JdTl2YU2nar3yQbTGPbS-42">
          <mxGeometry x="70" y="240" width="120" height="30" as="geometry" />
        </mxCell>
        <mxCell id="JdTl2YU2nar3yQbTGPbS-53" value="" style="rounded=1;whiteSpace=wrap;html=1;" vertex="1" parent="JdTl2YU2nar3yQbTGPbS-52">
          <mxGeometry width="120" height="30" as="geometry" />
        </mxCell>
        <mxCell id="JdTl2YU2nar3yQbTGPbS-54" value="&lt;b&gt;&lt;font style=&quot;font-size: 15px&quot;&gt;查看报告&lt;/font&gt;&lt;/b&gt;" style="text;html=1;resizable=0;autosize=1;align=center;verticalAlign=middle;points=[];fillColor=none;strokeColor=none;rounded=0;" vertex="1" parent="JdTl2YU2nar3yQbTGPbS-52">
          <mxGeometry x="20" y="5" width="80" height="20" as="geometry" />
        </mxCell>
        <mxCell id="JdTl2YU2nar3yQbTGPbS-47" value="&lt;font style=&quot;font-size: 25px&quot;&gt;&lt;span&gt;mysql&lt;/span&gt;&lt;/font&gt;" style="outlineConnect=0;fontColor=#232F3E;gradientColor=none;strokeColor=#232F3E;fillColor=#ffffff;dashed=0;verticalLabelPosition=bottom;verticalAlign=top;align=center;html=1;fontSize=12;fontStyle=1;aspect=fixed;shape=mxgraph.aws4.resourceIcon;resIcon=mxgraph.aws4.generic_database;" vertex="1" parent="1">
          <mxGeometry x="-380" y="972.5" width="140" height="140" as="geometry" />
        </mxCell>
        <mxCell id="JdTl2YU2nar3yQbTGPbS-49" value="&lt;b&gt;&lt;font style=&quot;font-size: 15px&quot; color=&quot;#ff0000&quot;&gt;4.用户名，邮箱，密码&lt;/font&gt;&lt;/b&gt;" style="text;html=1;resizable=0;autosize=1;align=center;verticalAlign=middle;points=[];fillColor=none;strokeColor=none;rounded=0;" vertex="1" parent="1">
          <mxGeometry x="-260" y="1000" width="160" height="20" as="geometry" />
        </mxCell>
        <mxCell id="JdTl2YU2nar3yQbTGPbS-51" style="edgeStyle=orthogonalEdgeStyle;rounded=0;orthogonalLoop=1;jettySize=auto;html=1;strokeWidth=3;" edge="1" parent="1" source="JdTl2YU2nar3yQbTGPbS-21" target="JdTl2YU2nar3yQbTGPbS-43">
          <mxGeometry relative="1" as="geometry">
            <Array as="points">
              <mxPoint x="810" y="550" />
            </Array>
          </mxGeometry>
        </mxCell>
        <mxCell id="JdTl2YU2nar3yQbTGPbS-55" style="edgeStyle=orthogonalEdgeStyle;rounded=0;orthogonalLoop=1;jettySize=auto;html=1;strokeWidth=3;" edge="1" parent="1" source="JdTl2YU2nar3yQbTGPbS-24" target="JdTl2YU2nar3yQbTGPbS-26">
          <mxGeometry relative="1" as="geometry">
            <Array as="points">
              <mxPoint x="300" y="605" />
              <mxPoint x="300" y="1042" />
            </Array>
          </mxGeometry>
        </mxCell>
        <mxCell id="JdTl2YU2nar3yQbTGPbS-57" value="" style="endArrow=classic;html=1;strokeWidth=3;entryX=0.711;entryY=0.181;entryDx=0;entryDy=0;entryPerimeter=0;" edge="1" parent="1" target="JdTl2YU2nar3yQbTGPbS-26">
          <mxGeometry width="50" height="50" relative="1" as="geometry">
            <mxPoint x="350" y="550" as="sourcePoint" />
            <mxPoint x="130" y="860" as="targetPoint" />
            <Array as="points">
              <mxPoint x="350" y="680" />
              <mxPoint x="350" y="860" />
              <mxPoint x="119" y="860" />
            </Array>
          </mxGeometry>
        </mxCell>
        <mxCell id="JdTl2YU2nar3yQbTGPbS-59" value="" style="endArrow=classic;html=1;strokeWidth=3;entryX=1;entryY=0.22;entryDx=0;entryDy=0;entryPerimeter=0;" edge="1" parent="1" target="JdTl2YU2nar3yQbTGPbS-15">
          <mxGeometry width="50" height="50" relative="1" as="geometry">
            <mxPoint x="550" y="550" as="sourcePoint" />
            <mxPoint x="390" y="580" as="targetPoint" />
            <Array as="points">
              <mxPoint x="550" y="400" />
            </Array>
          </mxGeometry>
        </mxCell>
        <mxCell id="JdTl2YU2nar3yQbTGPbS-60" style="edgeStyle=orthogonalEdgeStyle;rounded=0;orthogonalLoop=1;jettySize=auto;html=1;entryX=1;entryY=0.293;entryDx=0;entryDy=0;entryPerimeter=0;strokeWidth=3;" edge="1" parent="1" source="JdTl2YU2nar3yQbTGPbS-6" target="JdTl2YU2nar3yQbTGPbS-43">
          <mxGeometry relative="1" as="geometry">
            <Array as="points">
              <mxPoint x="-470" y="555" />
              <mxPoint x="-470" y="1420" />
              <mxPoint x="1020" y="1420" />
              <mxPoint x="1020" y="760" />
            </Array>
          </mxGeometry>
        </mxCell>
        <mxCell id="JdTl2YU2nar3yQbTGPbS-61" value="" style="endArrow=classic;html=1;strokeWidth=3;entryX=0.31;entryY=0.8;entryDx=0;entryDy=0;entryPerimeter=0;" edge="1" parent="1" target="JdTl2YU2nar3yQbTGPbS-26">
          <mxGeometry width="50" height="50" relative="1" as="geometry">
            <mxPoint x="-470" y="1230" as="sourcePoint" />
            <mxPoint x="350" y="820" as="targetPoint" />
            <Array as="points">
              <mxPoint x="-21" y="1230" />
            </Array>
          </mxGeometry>
        </mxCell>
        <mxCell id="JdTl2YU2nar3yQbTGPbS-62" value="&lt;span style=&quot;font-size: 15px&quot;&gt;&lt;b&gt;1.用户名，密码&lt;/b&gt;&lt;/span&gt;" style="text;html=1;resizable=0;autosize=1;align=center;verticalAlign=middle;points=[];fillColor=none;strokeColor=none;rounded=0;" vertex="1" parent="1">
          <mxGeometry x="-320" y="1200" width="120" height="20" as="geometry" />
        </mxCell>
        <mxCell id="JdTl2YU2nar3yQbTGPbS-65" value="&lt;b&gt;&lt;font style=&quot;font-size: 15px&quot;&gt;2.登录反馈结果&lt;/font&gt;&lt;/b&gt;" style="text;html=1;resizable=0;autosize=1;align=center;verticalAlign=middle;points=[];fillColor=none;strokeColor=none;rounded=0;" vertex="1" parent="1">
          <mxGeometry x="-200" y="910" width="120" height="20" as="geometry" />
        </mxCell>
      </root>
    </mxGraphModel>
  </diagram>
</mxfile>
